<mxfile host="app.diagrams.net" modified="2024-07-26T07:30:45.512Z" agent="Mozilla/5.0 (Macintosh; Intel Mac OS X 10.15; rv:128.0) Gecko/20100101 Firefox/128.0" etag="ytjr0jC8YW0c6z_Gwwi6" version="24.6.4" type="device">
  <diagram name="Page-1" id="1yOear_Y5zXkfFkDBNzW">
    <mxGraphModel dx="2074" dy="1129" grid="1" gridSize="10" guides="1" tooltips="1" connect="1" arrows="1" fold="1" page="1" pageScale="1" pageWidth="827" pageHeight="1169" math="0" shadow="0">
      <root>
        <mxCell id="0" />
        <mxCell id="1" parent="0" />
        <mxCell id="42TSwH-nDqSuIULIcVUR-6" style="edgeStyle=orthogonalEdgeStyle;rounded=0;orthogonalLoop=1;jettySize=auto;html=1;exitX=1;exitY=0.5;exitDx=0;exitDy=0;curved=1;strokeWidth=3;fillColor=#fa6800;strokeColor=#C73500;" edge="1" parent="1" source="42TSwH-nDqSuIULIcVUR-1" target="42TSwH-nDqSuIULIcVUR-2">
          <mxGeometry relative="1" as="geometry" />
        </mxCell>
        <mxCell id="42TSwH-nDqSuIULIcVUR-8" value="&lt;font style=&quot;font-size: 16px;&quot;&gt;Programmazione&lt;/font&gt;" style="edgeLabel;html=1;align=center;verticalAlign=middle;resizable=0;points=[];" vertex="1" connectable="0" parent="42TSwH-nDqSuIULIcVUR-6">
          <mxGeometry x="0.0933" y="-11" relative="1" as="geometry">
            <mxPoint as="offset" />
          </mxGeometry>
        </mxCell>
        <mxCell id="42TSwH-nDqSuIULIcVUR-1" value="&lt;font style=&quot;font-size: 19px;&quot;&gt;Popolazione&lt;/font&gt;" style="rounded=1;whiteSpace=wrap;html=1;fillColor=#ffe6cc;strokeColor=#d79b00;" vertex="1" parent="1">
          <mxGeometry x="320" y="20" width="120" height="60" as="geometry" />
        </mxCell>
        <mxCell id="42TSwH-nDqSuIULIcVUR-9" style="edgeStyle=orthogonalEdgeStyle;rounded=0;orthogonalLoop=1;jettySize=auto;html=1;exitX=0.5;exitY=1;exitDx=0;exitDy=0;entryX=1;entryY=0.5;entryDx=0;entryDy=0;curved=1;strokeWidth=3;fillColor=#fa6800;strokeColor=#C73500;" edge="1" parent="1" source="42TSwH-nDqSuIULIcVUR-2" target="42TSwH-nDqSuIULIcVUR-3">
          <mxGeometry relative="1" as="geometry" />
        </mxCell>
        <mxCell id="42TSwH-nDqSuIULIcVUR-10" value="&lt;font style=&quot;font-size: 16px;&quot;&gt;Descrizione&lt;/font&gt;" style="edgeLabel;html=1;align=center;verticalAlign=middle;resizable=0;points=[];" vertex="1" connectable="0" parent="42TSwH-nDqSuIULIcVUR-9">
          <mxGeometry x="-0.3765" y="-16" relative="1" as="geometry">
            <mxPoint as="offset" />
          </mxGeometry>
        </mxCell>
        <mxCell id="42TSwH-nDqSuIULIcVUR-2" value="&lt;font style=&quot;font-size: 19px;&quot;&gt;Campione&lt;/font&gt;" style="rounded=1;whiteSpace=wrap;html=1;fillColor=#ffe6cc;strokeColor=#d79b00;" vertex="1" parent="1">
          <mxGeometry x="480" y="130" width="120" height="60" as="geometry" />
        </mxCell>
        <mxCell id="42TSwH-nDqSuIULIcVUR-3" value="&lt;font style=&quot;font-size: 19px;&quot;&gt;Statistiche&lt;/font&gt;" style="rounded=1;whiteSpace=wrap;html=1;fillColor=#ffe6cc;strokeColor=#d79b00;" vertex="1" parent="1">
          <mxGeometry x="320" y="230" width="120" height="60" as="geometry" />
        </mxCell>
        <mxCell id="42TSwH-nDqSuIULIcVUR-13" style="edgeStyle=orthogonalEdgeStyle;rounded=0;orthogonalLoop=1;jettySize=auto;html=1;exitX=0.5;exitY=0;exitDx=0;exitDy=0;entryX=0;entryY=0.5;entryDx=0;entryDy=0;fillColor=#fa6800;strokeColor=#C73500;strokeWidth=4;curved=1;" edge="1" parent="1" source="42TSwH-nDqSuIULIcVUR-4" target="42TSwH-nDqSuIULIcVUR-1">
          <mxGeometry relative="1" as="geometry" />
        </mxCell>
        <mxCell id="42TSwH-nDqSuIULIcVUR-14" value="&lt;font style=&quot;font-size: 16px;&quot;&gt;Decisione&lt;br&gt;&lt;/font&gt;" style="edgeLabel;html=1;align=center;verticalAlign=middle;resizable=0;points=[];" vertex="1" connectable="0" parent="42TSwH-nDqSuIULIcVUR-13">
          <mxGeometry x="-0.4353" y="-11" relative="1" as="geometry">
            <mxPoint as="offset" />
          </mxGeometry>
        </mxCell>
        <mxCell id="42TSwH-nDqSuIULIcVUR-4" value="&lt;font style=&quot;font-size: 19px;&quot;&gt;Parametri&lt;/font&gt;" style="rounded=1;whiteSpace=wrap;html=1;fillColor=#ffe6cc;strokeColor=#d79b00;" vertex="1" parent="1">
          <mxGeometry x="170" y="130" width="120" height="60" as="geometry" />
        </mxCell>
        <mxCell id="42TSwH-nDqSuIULIcVUR-11" style="edgeStyle=orthogonalEdgeStyle;rounded=0;orthogonalLoop=1;jettySize=auto;html=1;exitX=0;exitY=0.5;exitDx=0;exitDy=0;entryX=0.45;entryY=1;entryDx=0;entryDy=0;entryPerimeter=0;fillColor=#fa6800;strokeColor=#C73500;curved=1;fontSize=15;strokeWidth=3;" edge="1" parent="1" source="42TSwH-nDqSuIULIcVUR-3" target="42TSwH-nDqSuIULIcVUR-4">
          <mxGeometry relative="1" as="geometry" />
        </mxCell>
        <mxCell id="42TSwH-nDqSuIULIcVUR-12" value="&lt;font style=&quot;font-size: 16px;&quot;&gt;Inferenza&lt;/font&gt;" style="edgeLabel;html=1;align=center;verticalAlign=middle;resizable=0;points=[];" vertex="1" connectable="0" parent="42TSwH-nDqSuIULIcVUR-11">
          <mxGeometry x="-0.1084" y="-19" relative="1" as="geometry">
            <mxPoint as="offset" />
          </mxGeometry>
        </mxCell>
      </root>
    </mxGraphModel>
  </diagram>
</mxfile>
